<?xml version="1.0" standalone="no"?><svg xmlns="http://www.w3.org/2000/svg" viewBox="0 0 1440 320"><path fill="#d4e7e2" fill-opacity="1" d="M0,96L34.3,122.7C68.6,149,137,203,206,197.3C274.3,192,343,128,411,133.3C480,139,549,213,617,224C685.7,235,754,181,823,154.7C891.4,128,960,128,1029,160C1097.1,192,1166,256,1234,282.7C1302.9,309,1371,299,1406,293.3L1440,288L1440,320L1405.7,320C1371.4,320,1303,320,1234,320C1165.7,320,1097,320,1029,320C960,320,891,320,823,320C754.3,320,686,320,617,320C548.6,320,480,320,411,320C342.9,320,274,320,206,320C137.1,320,69,320,34,320L0,320Z" style="--darkreader-inline-fill: #424e41;" data-darkreader-inline-fill=""></path></svg>