<?xml version="1.0" standalone="no"?><svg xmlns="http://www.w3.org/2000/svg" viewBox="0 0 1440 320"><path fill="#d4e7e2" fill-opacity="1" d="M0,160L34.3,138.7C68.6,117,137,75,206,74.7C274.3,75,343,117,411,122.7C480,128,549,96,617,117.3C685.7,139,754,213,823,208C891.4,203,960,117,1029,101.3C1097.1,85,1166,139,1234,186.7C1302.9,235,1371,277,1406,298.7L1440,320L1440,320L1405.7,320C1371.4,320,1303,320,1234,320C1165.7,320,1097,320,1029,320C960,320,891,320,823,320C754.3,320,686,320,617,320C548.6,320,480,320,411,320C342.9,320,274,320,206,320C137.1,320,69,320,34,320L0,320Z" style="--darkreader-inline-fill: #424e41;" data-darkreader-inline-fill=""></path></svg>